<svg width="124" height="124" viewBox="0 0 124 124" version="1.1" xmlns="http://www.w3.org/2000/svg"><title>timed_practice</title><g stroke="none" stroke-width="1" fill="none" fill-rule="evenodd"><g transform="translate(20 20)"><circle stroke="#A977F8" stroke-width="7.496" fill="#FFF" cx="42" cy="42" r="42"/><path d="M43.34 38.186l14.358 3.568a2.775 2.775 0 1 1-.961 5.452l-14.712-1.558a3.797 3.797 0 0 1-3.34-4.436 3.797 3.797 0 0 1 4.655-3.026z" fill="#545454"/><rect fill="#DEDEDE" x="40.127" y="6.42" width="4.28" height="8.561" rx="2.14"/><rect fill="#DEDEDE" x="40.127" y="69.019" width="4.28" height="8.561" rx="2.14"/><path d="M77.847 42a2.14 2.14 0 0 1-2.14 2.14h-4.28a2.14 2.14 0 0 1 0-4.28h4.28a2.14 2.14 0 0 1 2.14 2.14zM15.248 42a2.14 2.14 0 0 1-2.14 2.14h-4.28a2.14 2.14 0 0 1 0-4.28h4.28a2.14 2.14 0 0 1 2.14 2.14zM72.44 60.854a2.14 2.14 0 0 1-2.948.681l-3.63-2.268a2.14 2.14 0 1 1 2.268-3.63l3.63 2.268a2.14 2.14 0 0 1 .68 2.95zM19.354 27.682a2.14 2.14 0 0 1-2.949.68l-3.63-2.267a2.14 2.14 0 1 1 2.268-3.63l3.63 2.268a2.14 2.14 0 0 1 .681 2.95z" fill="#DEDEDE"/><path d="M46.27 42.586l-1.15 23.312a2.72 2.72 0 1 1-5.434 0l-1.152-23.312a3.873 3.873 0 0 1 3.868-4.064 3.873 3.873 0 0 1 3.868 4.064z" fill="#545454"/><path d="M59.517 73.119a2.14 2.14 0 0 1-2.91-.835l-2.075-3.743a2.14 2.14 0 1 1 3.744-2.075l2.075 3.743a2.14 2.14 0 0 1-.834 2.91zM29.168 18.369a2.14 2.14 0 0 1-2.909-.835l-2.075-3.743a2.14 2.14 0 1 1 3.744-2.075l2.075 3.743a2.14 2.14 0 0 1-.835 2.91zM26.115 73.702a2.14 2.14 0 0 1-.936-2.879l1.944-3.814a2.14 2.14 0 1 1 3.814 1.943l-1.944 3.814a2.14 2.14 0 0 1-2.878.936z" fill="#DEDEDE"/><circle fill="#545454" transform="matrix(1 0 0 -1 0 85.07)" cx="42.535" cy="42.535" r="6.153"/><path d="M54.534 17.926a2.14 2.14 0 0 1-.935-2.879l1.943-3.813a2.14 2.14 0 0 1 3.814 1.943l-1.944 3.814a2.14 2.14 0 0 1-2.878.935zM11.455 59.79a2.14 2.14 0 0 1 .783-2.924l3.707-2.14a2.14 2.14 0 0 1 2.14 3.707l-3.707 2.14a2.14 2.14 0 0 1-2.923-.783zM65.667 28.49a2.14 2.14 0 0 1 .783-2.923l3.707-2.14a2.14 2.14 0 1 1 2.14 3.707l-3.707 2.14a2.14 2.14 0 0 1-2.923-.784z" fill="#DEDEDE"/></g></g></svg>